<svg width="311" height="249" viewBox="0 0 311 249" fill="none" xmlns="http://www.w3.org/2000/svg">
<g filter="url(#filter0_f_18_892)">
<path d="M85.5891 214.384C76.3268 216.06 68.6281 214.824 62.4929 210.677C56.3577 206.529 52.452 199.824 50.7758 190.562L34.2747 99.3803C32.6097 90.1794 34.0154 82.5449 38.4919 76.4769C43.0298 70.3977 49.7152 66.5589 58.5481 64.9604L158.286 46.9109C167.549 45.2347 175.094 46.4982 180.923 50.7013C186.751 54.9044 190.498 61.6065 192.163 70.8074L208.664 161.989C210.34 171.251 209.032 178.9 204.739 184.934C200.447 190.969 193.67 194.825 184.407 196.501L85.5891 214.384ZM217.847 141.322L208.006 86.9448L236.269 51.9929C237.609 50.2935 239.065 48.8897 240.639 47.7814C242.273 46.6621 243.918 45.9526 245.575 45.6529C249.132 45.009 252.201 45.689 254.781 47.6927C257.411 49.624 259.07 52.4912 259.758 56.2942L277.075 151.984C277.763 155.787 277.22 159.085 275.445 161.876C273.72 164.596 271.078 166.277 267.52 166.921C265.864 167.221 264.075 167.133 262.151 166.658C260.279 166.11 258.423 165.305 256.584 164.244L217.847 141.322Z" fill="#007AFF" fill-opacity="0.28"/>
</g>
<defs>
<filter id="filter0_f_18_892" x="0.378613" y="0.792919" width="310.193" height="247.57" filterUnits="userSpaceOnUse" color-interpolation-filters="sRGB">
<feFlood flood-opacity="0" result="BackgroundImageFix"/>
<feBlend mode="normal" in="SourceGraphic" in2="BackgroundImageFix" result="shape"/>
<feGaussianBlur stdDeviation="14.3173" result="effect1_foregroundBlur_18_892"/>
</filter>
</defs>
</svg>
