<svg width="57" height="45" viewBox="0 0 57 45" fill="none" xmlns="http://www.w3.org/2000/svg">
<g filter="url(#filter0_f_18_779)">
<path d="M14.5883 40.6499C12.7413 40.9842 11.206 40.7377 9.98253 39.9106C8.75907 39.0835 7.98021 37.7465 7.64595 35.8994L4.35538 17.7163C4.02333 15.8815 4.30365 14.3591 5.19635 13.149C6.10128 11.9367 7.43445 11.1712 9.19588 10.8525L29.0853 7.25308C30.9324 6.91882 32.437 7.17077 33.5993 8.00895C34.7616 8.84713 35.5088 10.1836 35.8409 12.0184L39.1314 30.2015C39.4657 32.0485 39.2048 33.5738 38.3488 34.7772C37.4928 35.9806 36.1413 36.7495 34.2943 37.0837L14.5883 40.6499ZM40.9627 26.0803L39.0003 15.2365L44.6364 8.26652C44.9036 7.92763 45.194 7.64768 45.5077 7.42668C45.8337 7.20347 46.1618 7.06198 46.492 7.00221C47.2015 6.87382 47.8135 7.00941 48.3279 7.40898C48.8524 7.79411 49.1832 8.36588 49.3205 9.12427L52.7738 28.2064C52.911 28.9648 52.8026 29.6223 52.4486 30.1791C52.1046 30.7214 51.5779 31.0567 50.8684 31.1851C50.5381 31.2449 50.1812 31.2274 49.7977 31.1325C49.4242 31.0233 49.0541 30.8629 48.6874 30.6513L40.9627 26.0803Z" fill="#007AFF" fill-opacity="0.2"/>
</g>
<defs>
<filter id="filter0_f_18_779" x="0.469068" y="0.929518" width="56.1114" height="43.6233" filterUnits="userSpaceOnUse" color-interpolation-filters="sRGB">
<feFlood flood-opacity="0" result="BackgroundImageFix"/>
<feBlend mode="normal" in="SourceGraphic" in2="BackgroundImageFix" result="shape"/>
<feGaussianBlur stdDeviation="1.41854" result="effect1_foregroundBlur_18_779"/>
</filter>
</defs>
</svg>
