<svg width="130" height="130" viewBox="0 0 130 130" fill="none" xmlns="http://www.w3.org/2000/svg">
<g id="FilmReel" clip-path="url(#clip0_18_844)">
<g id="Vector" filter="url(#filter0_f_18_844)">
<path d="M117.267 109.223H92.8119C103.467 102.509 111.34 92.1745 114.982 80.119C118.625 68.0635 117.791 55.0982 112.636 43.6082C107.48 32.1182 98.3487 22.8762 86.9216 17.5825C75.4946 12.2887 62.5403 11.2991 50.4418 14.7958C38.3433 18.2925 27.9142 26.0402 21.0731 36.6138C14.2321 47.1874 11.4391 59.8756 13.2079 72.3445C14.9768 84.8133 21.1885 96.2242 30.7005 104.478C40.2124 112.732 52.3849 117.273 64.9785 117.267H117.267C118.333 117.267 119.356 116.843 120.111 116.089C120.865 115.334 121.289 114.311 121.289 113.245C121.289 112.178 120.865 111.155 120.111 110.401C119.356 109.646 118.333 109.223 117.267 109.223ZM40.8456 75.0341C38.8568 75.0341 36.9127 74.4444 35.2591 73.3395C33.6055 72.2346 32.3167 70.6641 31.5556 68.8268C30.7945 66.9894 30.5954 64.9676 30.9834 63.017C31.3714 61.0664 32.3291 59.2747 33.7353 57.8685C35.1416 56.4622 36.9333 55.5045 38.8839 55.1165C40.8344 54.7285 42.8562 54.9277 44.6936 55.6887C46.531 56.4498 48.1014 57.7386 49.2063 59.3922C50.3112 61.0458 50.901 62.9899 50.901 64.9787C50.901 67.6456 49.8416 70.2032 47.9558 72.089C46.0701 73.9747 43.5124 75.0341 40.8456 75.0341ZM64.9785 99.1671C62.9898 99.1671 61.0457 98.5774 59.3921 97.4725C57.7385 96.3676 56.4496 94.7971 55.6886 92.9597C54.9275 91.1223 54.7284 89.1005 55.1164 87.15C55.5043 85.1994 56.462 83.4077 57.8683 82.0014C59.2746 80.5952 61.0663 79.6375 63.0168 79.2495C64.9674 78.8615 66.9892 79.0606 68.8266 79.8217C70.664 80.5828 72.2344 81.8716 73.3393 83.5252C74.4442 85.1788 75.034 87.1229 75.034 89.1117C75.034 91.7785 73.9745 94.3362 72.0888 96.2219C70.203 98.1077 67.6454 99.1671 64.9785 99.1671ZM64.9785 50.9011C62.9898 50.9011 61.0457 50.3114 59.3921 49.2065C57.7385 48.1016 56.4496 46.5312 55.6886 44.6938C54.9275 42.8564 54.7284 40.8346 55.1164 38.884C55.5043 36.9335 56.462 35.1418 57.8683 33.7355C59.2746 32.3292 61.0663 31.3715 63.0168 30.9835C64.9674 30.5956 66.9892 30.7947 68.8266 31.5558C70.664 32.3168 72.2344 33.6056 73.3393 35.2593C74.4442 36.9129 75.034 38.857 75.034 40.8457C75.034 43.5126 73.9745 46.0702 72.0888 47.956C70.203 49.8417 67.6454 50.9011 64.9785 50.9011ZM79.0561 64.9787C79.0561 62.9899 79.6459 61.0458 80.7508 59.3922C81.8557 57.7386 83.4261 56.4498 85.2635 55.6887C87.1009 54.9277 89.1227 54.7285 91.0732 55.1165C93.0238 55.5045 94.8155 56.4622 96.2218 57.8685C97.6281 59.2747 98.5857 61.0664 98.9737 63.017C99.3617 64.9676 99.1626 66.9894 98.4015 68.8268C97.6404 70.6641 96.3516 72.2346 94.698 73.3395C93.0444 74.4444 91.1003 75.0341 89.1115 75.0341C86.4447 75.0341 83.887 73.9747 82.0013 72.089C80.1155 70.2032 79.0561 67.6456 79.0561 64.9787Z" fill="#007AFF" fill-opacity="0.28"/>
</g>
</g>
<defs>
<filter id="filter0_f_18_844" x="2.6897" y="2.74084" width="128.599" height="124.526" filterUnits="userSpaceOnUse" color-interpolation-filters="sRGB">
<feFlood flood-opacity="0" result="BackgroundImageFix"/>
<feBlend mode="normal" in="SourceGraphic" in2="BackgroundImageFix" result="shape"/>
<feGaussianBlur stdDeviation="5" result="effect1_foregroundBlur_18_844"/>
</filter>
<clipPath id="clip0_18_844">
<rect width="128.709" height="128.709" fill="white" transform="translate(0.624023 0.623962)"/>
</clipPath>
</defs>
</svg>
