<svg width="60" height="60" viewBox="0 0 60 60" fill="none" xmlns="http://www.w3.org/2000/svg">
<g id="FilmReel" clip-path="url(#clip0_18_798)">
<g id="Vector" filter="url(#filter0_f_18_798)">
<path d="M52.5166 38.5288L44.3769 41.6122C47.0771 38.0342 48.3944 33.6017 48.0868 29.1298C47.7791 24.6579 45.867 20.4476 42.7022 17.2732C39.5374 14.0989 35.3329 12.174 30.862 11.8528C26.3911 11.5315 21.9545 12.8355 18.3684 15.5248C14.7824 18.2141 12.288 22.1078 11.3441 26.4897C10.4002 30.8717 11.0704 35.4471 13.2313 39.3743C15.3922 43.3014 18.8984 46.3163 23.1051 47.8642C27.3118 49.4121 31.936 49.389 36.1269 47.799L53.5309 41.2063C53.8859 41.0718 54.173 40.8018 54.329 40.4556C54.4849 40.1094 54.497 39.7155 54.3625 39.3604C54.228 39.0054 53.9579 38.7183 53.6118 38.5623C53.2656 38.4064 52.8717 38.3943 52.5166 38.5288ZM22.7695 36.7848C22.1075 37.0356 21.3861 37.0844 20.6964 36.9251C20.0067 36.7659 19.3797 36.4056 18.8947 35.89C18.4097 35.3744 18.0885 34.7266 17.9717 34.0284C17.8549 33.3303 17.9478 32.6132 18.2385 31.9678C18.5293 31.3224 19.0049 30.7777 19.6052 30.4027C20.2056 30.0276 20.9036 29.8389 21.6111 29.8606C22.3187 29.8823 23.0039 30.1132 23.5801 30.5243C24.1564 30.9354 24.5978 31.5081 24.8486 32.1701C25.1848 33.0577 25.1547 34.0426 24.7648 34.908C24.3749 35.7735 23.6571 36.4486 22.7695 36.7848ZM33.8448 41.7746C33.1829 42.0254 32.4614 42.0742 31.7717 41.9149C31.082 41.7556 30.455 41.3954 29.9701 40.8798C29.4851 40.3642 29.1639 39.7164 29.0471 39.0182C28.9303 38.3201 29.0231 37.603 29.3139 36.9576C29.6047 36.3122 30.0803 35.7675 30.6806 35.3924C31.2809 35.0174 31.979 34.8287 32.6865 34.8504C33.394 34.872 34.0792 35.103 34.6555 35.5141C35.2318 35.9252 35.6732 36.4979 35.9239 37.1599C36.2602 38.0475 36.23 39.0324 35.8401 39.8978C35.4502 40.7633 34.7325 41.4384 33.8448 41.7746ZM27.7593 25.7095C27.0973 25.9602 26.3759 26.009 25.6862 25.8498C24.9965 25.6905 24.3695 25.3303 23.8845 24.8147C23.3995 24.2991 23.0783 23.6512 22.9615 22.9531C22.8447 22.2549 22.9376 21.5378 23.2283 20.8924C23.5191 20.247 23.9947 19.7024 24.595 19.3273C25.1953 18.9522 25.8934 18.7636 26.6009 18.7852C27.3085 18.8069 27.9937 19.0379 28.5699 19.4489C29.1462 19.86 29.5876 20.4328 29.8383 21.0947C30.1746 21.9824 30.1445 22.9672 29.7546 23.8327C29.3646 24.6981 28.6469 25.3732 27.7593 25.7095ZM34.2199 28.6202C33.9691 27.9582 33.9203 27.2368 34.0796 26.5471C34.2389 25.8573 34.5991 25.2304 35.1147 24.7454C35.6303 24.2604 36.2781 23.9392 36.9763 23.8224C37.6744 23.7056 38.3916 23.7985 39.0369 24.0892C39.6823 24.38 40.227 24.8556 40.6021 25.4559C40.9771 26.0562 41.1658 26.7543 41.1441 27.4618C41.1225 28.1693 40.8915 28.8546 40.4804 29.4308C40.0693 30.0071 39.4966 30.4485 38.8346 30.6992C37.947 31.0355 36.9621 31.0053 36.0967 30.6154C35.2312 30.2255 34.5561 29.5078 34.2199 28.6202Z" fill="#007AFF" fill-opacity="0.44"/>
</g>
</g>
<defs>
<filter id="filter0_f_18_798" x="4.01147" y="4.88937" width="57.3594" height="51.0347" filterUnits="userSpaceOnUse" color-interpolation-filters="sRGB">
<feFlood flood-opacity="0" result="BackgroundImageFix"/>
<feBlend mode="normal" in="SourceGraphic" in2="BackgroundImageFix" result="shape"/>
<feGaussianBlur stdDeviation="3.45776" result="effect1_foregroundBlur_18_798"/>
</filter>
<clipPath id="clip0_18_798">
<rect width="45.8111" height="45.8111" fill="white" transform="translate(0 17.089) rotate(-20.747)"/>
</clipPath>
</defs>
</svg>
