<svg width="34" height="43" viewBox="0 0 34 43" fill="none" xmlns="http://www.w3.org/2000/svg">
<rect width="34" height="43" fill="#F5F5F5"/>
<g clip-path="url(#clip0_0_1)">
<rect width="1440" height="3566" transform="translate(-168 -14)" fill="#050716"/>
<g filter="url(#filter0_f_0_1)">
<circle cx="552" cy="529" r="194" fill="#007AFF" fill-opacity="0.97"/>
</g>
<g clip-path="url(#clip1_0_1)">
<path d="M9.49489 18.9098V34.5312L0.00012207 27.7356V12.1141H0.00179753L9.49489 18.9098Z" fill="#2351A6"/>
<path d="M29.2524 0.282166V13.328L24.5047 9.94158L22.5055 11.1364L10.0213 18.5954L9.49492 18.9098L0.00183105 12.1142L10.0213 6.12783L13.0107 4.3408L15.0099 3.14596L11.0082 0.282166H29.2524Z" fill="#439EF4"/>
<path d="M33.9998 19.2883V34.9097H33.9981L24.505 28.1141V19.2883H33.9998Z" fill="#2351A6"/>
<path d="M33.9982 34.9098L23.9787 40.8961L20.9893 42.6831L20.9319 42.7179L11.4371 35.9222L11.4945 35.8875L23.9787 28.4285L24.5051 28.1141L33.9982 34.9098Z" fill="#439EF4"/>
</g>
</g>
<defs>
<filter id="filter0_f_0_1" x="-112" y="-135" width="1328" height="1328" filterUnits="userSpaceOnUse" color-interpolation-filters="sRGB">
<feFlood flood-opacity="0" result="BackgroundImageFix"/>
<feBlend mode="normal" in="SourceGraphic" in2="BackgroundImageFix" result="shape"/>
<feGaussianBlur stdDeviation="235" result="effect1_foregroundBlur_0_1"/>
</filter>
<clipPath id="clip0_0_1">
<rect width="1440" height="3566" fill="white" transform="translate(-168 -14)"/>
</clipPath>
<clipPath id="clip1_0_1">
<rect width="34" height="42.4357" fill="white" transform="translate(0 0.282135)"/>
</clipPath>
</defs>
</svg>
