<svg width="109" height="88" viewBox="0 0 109 88" fill="none" xmlns="http://www.w3.org/2000/svg">
<g filter="url(#filter0_f_18_802)">
<path d="M30.3202 75.3296C27.0856 75.915 24.3969 75.4834 22.2544 74.035C20.1118 72.5865 18.7478 70.2449 18.1624 67.0103L12.3998 35.1672C11.8183 31.9539 12.3092 29.2878 13.8725 27.1686C15.4573 25.0456 17.792 23.705 20.8767 23.1468L55.7081 16.8434C58.9428 16.258 61.5778 16.6992 63.6133 18.1671C65.6488 19.6349 66.9573 21.9755 67.5388 25.1887L73.3014 57.0318C73.8868 60.2665 73.4299 62.9375 71.9309 65.045C70.4318 67.1525 68.0649 68.499 64.8303 69.0843L30.3202 75.3296ZM76.5084 49.8145L73.0718 30.8243L82.942 18.6182C83.4098 18.0247 83.9184 17.5344 84.4678 17.1474C85.0387 16.7565 85.6133 16.5087 86.1916 16.404C87.4341 16.1792 88.5058 16.4166 89.4067 17.1164C90.3252 17.7909 90.9046 18.7922 91.145 20.1203L97.1925 53.5379C97.4329 54.866 97.2431 56.0176 96.6231 56.9926C96.0206 57.9423 95.0982 58.5295 93.8558 58.7544C93.2774 58.8591 92.6524 58.8284 91.9808 58.6623C91.3267 58.4709 90.6785 58.19 90.0363 57.8195L76.5084 49.8145Z" fill="#007AFF" fill-opacity="0.5"/>
</g>
<defs>
<filter id="filter0_f_18_802" x="0.562256" y="0.737671" width="108.328" height="86.4585" filterUnits="userSpaceOnUse" color-interpolation-filters="sRGB">
<feFlood flood-opacity="0" result="BackgroundImageFix"/>
<feBlend mode="normal" in="SourceGraphic" in2="BackgroundImageFix" result="shape"/>
<feGaussianBlur stdDeviation="5" result="effect1_foregroundBlur_18_802"/>
</filter>
</defs>
</svg>
